<?xml version="1.0" encoding="UTF-8" standalone="no"?>
<!DOCTYPE svg PUBLIC "-//W3C//DTD SVG 1.1//EN" "http://www.w3.org/Graphics/SVG/1.1/DTD/svg11.dtd">
<!-- Created with Vectornator (http://vectornator.io/) -->
<svg height="100%" stroke-miterlimit="10" style="fill-rule:nonzero;clip-rule:evenodd;stroke-linecap:round;stroke-linejoin:round;" version="1.1" viewBox="0 0 512 512" width="100%" xml:space="preserve" xmlns="http://www.w3.org/2000/svg" xmlns:vectornator="http://vectornator.io" xmlns:xlink="http://www.w3.org/1999/xlink">
<defs>
<clipPath id="TextBounds">
<rect height="506.324" width="834.424" x="-9.68765" y="-61.6855"/>
</clipPath>
</defs>
<clipPath id="ArtboardFrame">
<rect height="512" width="512" x="0" y="0"/>
</clipPath>
<g clip-path="url(#ArtboardFrame)" id="Layer-1" vectornator:layerName="Layer 1">
<path d="M-32.9846-15.3749L542.519-15.3749L542.519 537.912L-32.9846 537.912L-32.9846-15.3749Z" fill="#100101" fill-rule="nonzero" opacity="1" stroke="#8f9591" stroke-linecap="round" stroke-linejoin="round" stroke-width="1"/>
<g fill="#f56464" opacity="1" stroke="none">
<path clip-path="url(#TextBounds)" d="M49.1481 260.367L21.998 271.645L28.067 286.255L53.0662 275.87C54.906 275.106 56.4504 274.948 57.6996 275.397C58.9487 275.846 59.8542 276.746 60.4162 278.099C60.9781 279.452 60.9897 280.74 60.4509 281.963C59.9121 283.186 58.7093 284.185 56.8424 284.961L31.8432 295.345L38.8731 312.269L66.9566 300.603C68.8505 299.816 70.4603 299.663 71.7861 300.143C73.1118 300.623 74.0781 301.594 74.685 303.055C75.2694 304.462 75.264 305.805 74.6688 307.083C74.0736 308.361 72.8291 309.394 70.9352 310.18L38.1846 323.785C35.5602 324.875 33.4315 325.077 31.7984 324.392C30.1652 323.706 28.8092 322.064 27.7303 319.467L9.1525 274.744C8.43321 273.013 8.10301 271.492 8.16189 270.183C8.22077 268.874 8.69412 267.741 9.58195 266.786C10.4698 265.83 11.7659 264.998 13.4704 264.29L45.2876 251.073C47.2085 250.275 48.8127 250.109 50.1002 250.573C51.3876 251.038 52.3179 251.96 52.8911 253.34C53.4755 254.746 53.478 256.07 52.8986 257.31C52.3192 258.55 51.0691 259.569 49.1481 260.367Z"/>
<path clip-path="url(#TextBounds)" d="M119.918 274.938C120.491 276.318 120.691 277.964 120.518 279.876C120.345 281.788 119.707 283.805 118.607 285.928C117.506 288.051 115.85 290.079 113.639 292.013C111.429 293.946 108.714 295.582 105.494 296.919C98.6489 299.763 92.4766 299.987 86.977 297.592C81.4774 295.197 77.334 290.645 74.5468 283.935C72.6586 279.39 71.869 275.007 72.1778 270.786C72.4866 266.566 73.9087 262.81 76.4442 259.521C78.9797 256.231 82.5606 253.625 87.1871 251.703C90.055 250.512 92.8603 249.838 95.6031 249.682C98.3459 249.526 100.825 249.766 103.039 250.4C105.254 251.035 107.113 251.92 108.616 253.057C110.119 254.193 111.14 255.41 111.68 256.709C112.23 258.035 112.203 259.363 111.597 260.693C110.992 262.023 109.986 262.98 108.579 263.565C107.659 263.947 106.797 264.027 105.991 263.807C105.186 263.586 104.185 263.106 102.989 262.365C100.782 260.871 98.728 259.916 96.8264 259.5C94.9248 259.085 92.8377 259.349 90.565 260.293C87.2913 261.653 85.1844 264.027 84.2444 267.416C83.3044 270.804 83.7559 274.717 85.5991 279.154C86.4645 281.237 87.5167 283.045 88.7556 284.576C89.9946 286.108 91.3567 287.287 92.8421 288.113C94.3275 288.939 95.8921 289.384 97.5361 289.447C99.18 289.509 100.827 289.198 102.478 288.512C104.696 287.591 106.383 286.287 107.539 284.601C108.695 282.916 109.443 280.765 109.784 278.149C109.943 276.623 110.269 275.346 110.761 274.317C111.254 273.287 112.068 272.537 113.204 272.064C114.557 271.503 115.894 271.55 117.213 272.207C118.533 272.865 119.435 273.775 119.918 274.938Z"/>
<path clip-path="url(#TextBounds)" d="M167.395 244.89C168.766 248.191 169.516 251.448 169.646 254.662C169.775 257.876 169.282 260.889 168.165 263.7C167.049 266.511 165.36 269.013 163.099 271.206C160.837 273.398 158.015 275.197 154.633 276.602C151.278 277.995 148.037 278.707 144.909 278.738C141.781 278.768 138.817 278.183 136.019 276.982C133.22 275.781 130.743 274.019 128.587 271.694C126.432 269.369 124.663 266.543 123.281 263.215C121.887 259.86 121.126 256.576 120.996 253.362C120.867 250.149 121.352 247.155 122.453 244.382C123.553 241.609 125.248 239.121 127.536 236.917C129.825 234.713 132.62 232.926 135.921 231.555C139.275 230.161 142.544 229.438 145.726 229.385C148.908 229.332 151.889 229.902 154.669 231.095C157.448 232.288 159.919 234.053 162.08 236.391C164.241 238.73 166.012 241.563 167.395 244.89ZM156.275 249.51C154.398 244.991 151.943 241.887 148.909 240.197C145.875 238.507 142.681 238.359 139.326 239.752C137.162 240.651 135.487 242.005 134.303 243.814C133.119 245.622 132.536 247.807 132.554 250.37C132.571 252.932 133.187 255.674 134.401 258.596C135.603 261.491 137.094 263.838 138.872 265.637C140.65 267.436 142.597 268.571 144.711 269.041C146.826 269.511 148.992 269.285 151.211 268.363C154.566 266.97 156.712 264.595 157.65 261.239C158.588 257.884 158.129 253.974 156.275 249.51Z"/>
<path clip-path="url(#TextBounds)" d="M213.307 226.77L219.426 241.502C220.393 243.829 220.59 245.793 220.018 247.395C219.446 248.996 218.295 250.157 216.563 250.876C214.886 251.573 213.284 251.556 211.76 250.825C210.235 250.095 208.989 248.566 208.022 246.239L200.689 228.585C199.531 225.799 198.538 223.674 197.708 222.21C196.878 220.747 195.838 219.695 194.589 219.056C193.34 218.417 191.81 218.474 189.997 219.227C186.371 220.733 184.501 222.969 184.385 225.936C184.269 228.903 185.178 232.713 187.111 237.367L193.331 252.342C194.287 254.641 194.488 256.596 193.935 258.206C193.382 259.815 192.254 260.974 190.549 261.682C188.872 262.379 187.254 262.361 185.697 261.628C184.139 260.895 182.883 259.379 181.927 257.079L168.761 225.384C167.896 223.3 167.719 221.518 168.229 220.037C168.74 218.556 169.78 217.489 171.35 216.837C172.865 216.208 174.34 216.19 175.776 216.783C177.212 217.376 178.301 218.565 179.043 220.351L179.481 221.406C180.447 218.309 181.801 215.763 183.543 213.771C185.285 211.778 187.495 210.226 190.173 209.113C192.96 207.955 195.585 207.515 198.048 207.793C200.511 208.071 202.858 209.063 205.089 210.769C206.012 207.721 207.315 205.205 208.997 203.221C210.679 201.237 212.819 199.706 215.416 198.627C218.446 197.368 221.304 196.879 223.99 197.159C226.676 197.439 229.021 198.464 231.025 200.233C232.804 201.842 234.586 204.797 236.373 209.099L245.359 230.73C246.325 233.056 246.523 235.021 245.951 236.622C245.379 238.224 244.227 239.384 242.496 240.104C240.818 240.8 239.201 240.782 237.643 240.049C236.086 239.316 234.829 237.8 233.874 235.5L226.136 216.873C225.147 214.492 224.253 212.627 223.455 211.277C222.656 209.927 221.608 208.951 220.311 208.348C219.013 207.745 217.458 207.82 215.645 208.573C214.184 209.18 212.978 210.188 212.025 211.599C211.072 213.01 210.534 214.598 210.411 216.362C210.375 218.566 211.34 222.036 213.307 226.77Z"/>
<path clip-path="url(#TextBounds)" d="M286.843 196.223L292.963 210.955C293.929 213.282 294.127 215.246 293.555 216.847C292.983 218.449 291.831 219.61 290.1 220.329C288.422 221.026 286.821 221.009 285.296 220.278C283.771 219.547 282.526 218.019 281.559 215.692L274.226 198.038C273.068 195.252 272.074 193.127 271.244 191.663C270.414 190.2 269.375 189.148 268.126 188.509C266.877 187.87 265.346 187.927 263.533 188.68C259.908 190.186 258.037 192.422 257.921 195.389C257.806 198.356 258.714 202.166 260.647 206.819L266.868 221.795C267.823 224.094 268.025 226.049 267.472 227.659C266.919 229.268 265.79 230.427 264.086 231.135C262.408 231.832 260.791 231.814 259.233 231.081C257.676 230.348 256.419 228.832 255.464 226.532L242.298 194.836C241.432 192.753 241.255 190.971 241.766 189.49C242.277 188.009 243.317 186.942 244.886 186.29C246.401 185.661 247.877 185.643 249.313 186.236C250.749 186.829 251.838 188.018 252.58 189.804L253.018 190.859C253.984 187.761 255.337 185.216 257.079 183.224C258.821 181.231 261.031 179.679 263.71 178.566C266.497 177.408 269.121 176.968 271.584 177.246C274.047 177.524 276.394 178.515 278.626 180.222C279.549 177.173 280.851 174.658 282.533 172.674C284.216 170.69 286.355 169.159 288.953 168.08C291.983 166.821 294.841 166.332 297.527 166.612C300.213 166.892 302.558 167.917 304.562 169.686C306.34 171.294 308.123 174.25 309.91 178.552L318.896 200.182C319.862 202.509 320.059 204.473 319.487 206.075C318.916 207.677 317.764 208.837 316.032 209.557C314.355 210.253 312.737 210.235 311.18 209.502C309.622 208.769 308.366 207.253 307.41 204.953L299.673 186.326C298.684 183.945 297.79 182.079 296.991 180.73C296.193 179.38 295.145 178.404 293.847 177.801C292.55 177.198 290.995 177.273 289.182 178.026C287.721 178.632 286.514 179.641 285.562 181.052C284.609 182.463 284.071 184.051 283.947 185.815C283.911 188.019 284.877 191.488 286.843 196.223Z"/>
<path clip-path="url(#TextBounds)" d="M355.247 170.045L333.576 179.047C334.648 181.552 336.077 183.56 337.862 185.07C339.648 186.581 341.561 187.484 343.603 187.778C345.644 188.072 347.652 187.808 349.628 186.988C350.953 186.437 352.099 185.779 353.066 185.012C354.032 184.246 354.892 183.318 355.645 182.228C356.397 181.138 357.049 180.035 357.6 178.917C358.152 177.8 358.847 176.306 359.688 174.434C360.054 173.711 360.764 173.13 361.819 172.692C362.956 172.22 364.005 172.149 364.967 172.479C365.929 172.809 366.646 173.542 367.118 174.679C367.533 175.68 367.627 177.013 367.399 178.678C367.171 180.343 366.521 182.12 365.449 184.008C364.378 185.897 362.814 187.744 360.756 189.551C358.699 191.357 356.115 192.906 353.004 194.199C345.888 197.155 339.512 197.424 333.876 195.006C328.24 192.589 323.978 187.903 321.09 180.95C319.73 177.677 318.955 174.437 318.766 171.232C318.577 168.028 319 165.036 320.035 162.259C321.07 159.481 322.732 156.991 325.021 154.787C327.309 152.583 330.118 150.79 333.446 149.407C337.774 147.609 341.867 146.98 345.724 147.519C349.58 148.059 352.881 149.455 355.625 151.71C358.37 153.964 360.366 156.593 361.614 159.596C362.771 162.383 362.723 164.52 361.47 166.008C360.216 167.497 358.142 168.842 355.247 170.045ZM330.963 172.757L351.051 164.412C349.207 160.736 347.009 158.327 344.456 157.182C341.902 156.038 339.178 156.067 336.283 157.27C333.524 158.416 331.654 160.311 330.674 162.955C329.694 165.598 329.791 168.866 330.963 172.757Z"/>
<path clip-path="url(#TextBounds)" d="M386.295 161.62L390.139 170.873C391.072 173.119 391.244 175.022 390.655 176.583C390.066 178.145 388.96 179.262 387.337 179.937C385.741 180.6 384.192 180.577 382.692 179.867C381.192 179.158 379.981 177.694 379.06 175.476L366.247 144.633C364.179 139.654 364.945 136.418 368.543 134.923C370.383 134.159 371.95 134.19 373.245 135.016C374.54 135.842 375.7 137.375 376.725 139.614C377.107 136.79 377.753 134.508 378.663 132.765C379.573 131.023 381.191 129.669 383.518 128.702C385.845 127.736 388.346 127.379 391.021 127.632C393.695 127.885 395.432 128.972 396.23 130.893C396.792 132.246 396.788 133.556 396.22 134.823C395.652 136.09 394.827 136.948 393.745 137.398C393.339 137.566 392.254 137.723 390.491 137.869C388.727 138.015 387.25 138.335 386.06 138.829C384.436 139.504 383.287 140.481 382.613 141.76C381.939 143.039 381.667 144.636 381.795 146.549C381.924 148.463 382.36 150.621 383.105 153.024C383.849 155.427 384.913 158.293 386.295 161.62Z"/>
<path clip-path="url(#TextBounds)" d="M450.224 137.729C450.797 139.109 450.997 140.755 450.824 142.667C450.651 144.579 450.014 146.596 448.913 148.719C447.812 150.842 446.156 152.87 443.945 154.804C441.735 156.737 439.02 158.372 435.8 159.71C428.955 162.553 422.783 162.778 417.283 160.383C411.783 157.988 407.64 153.436 404.853 146.726C402.965 142.181 402.175 137.798 402.484 133.577C402.793 129.356 404.215 125.601 406.75 122.311C409.286 119.022 412.867 116.416 417.493 114.494C420.361 113.303 423.166 112.629 425.909 112.473C428.652 112.317 431.131 112.557 433.345 113.191C435.56 113.826 437.419 114.711 438.922 115.847C440.425 116.984 441.446 118.201 441.986 119.5C442.536 120.825 442.509 122.153 441.904 123.484C441.298 124.814 440.292 125.771 438.885 126.355C437.965 126.737 437.103 126.818 436.297 126.598C435.492 126.377 434.491 125.896 433.295 125.156C431.088 123.662 429.034 122.707 427.132 122.291C425.231 121.876 423.144 122.14 420.871 123.084C417.597 124.444 415.49 126.818 414.55 130.206C413.61 133.595 414.062 137.508 415.905 141.945C416.771 144.028 417.823 145.835 419.062 147.367C420.301 148.898 421.663 150.077 423.148 150.904C424.634 151.73 426.198 152.175 427.842 152.237C429.486 152.3 431.133 151.988 432.784 151.303C435.002 150.381 436.689 149.078 437.845 147.392C439.001 145.707 439.749 143.556 440.09 140.94C440.249 139.414 440.575 138.137 441.067 137.107C441.56 136.078 442.374 135.327 443.51 134.855C444.863 134.293 446.2 134.341 447.52 134.998C448.839 135.655 449.741 136.566 450.224 137.729Z"/>
<path clip-path="url(#TextBounds)" d="M488.279 114.783L466.607 123.786C467.68 126.291 469.108 128.298 470.894 129.809C472.679 131.32 474.593 132.222 476.634 132.516C478.676 132.81 480.684 132.547 482.659 131.727C483.985 131.176 485.131 130.517 486.097 129.751C487.064 128.985 487.923 128.057 488.676 126.967C489.429 125.877 490.081 124.773 490.632 123.656C491.183 122.539 491.879 121.044 492.719 119.173C493.085 118.45 493.796 117.869 494.851 117.431C495.987 116.959 497.036 116.888 497.998 117.218C498.96 117.548 499.677 118.281 500.149 119.417C500.565 120.418 500.659 121.751 500.43 123.417C500.202 125.082 499.552 126.859 498.481 128.747C497.409 130.636 495.845 132.483 493.788 134.289C491.731 136.096 489.146 137.645 486.035 138.937C478.919 141.893 472.544 142.162 466.908 139.745C461.272 137.327 457.01 132.642 454.121 125.689C452.761 122.415 451.987 119.176 451.798 115.971C451.608 112.766 452.031 109.775 453.067 106.997C454.102 104.22 455.764 101.729 458.052 99.5254C460.341 97.3216 463.149 95.5285 466.477 94.1461C470.806 92.3479 474.899 91.7185 478.755 92.2579C482.611 92.7973 485.912 94.1941 488.657 96.4484C491.401 98.7028 493.398 101.331 494.645 104.335C495.803 107.121 495.755 109.259 494.501 110.747C493.248 112.235 491.174 113.581 488.279 114.783ZM463.994 117.495L484.083 109.15C482.239 105.475 480.04 103.065 477.487 101.921C474.934 100.777 472.21 100.806 469.315 102.009C466.555 103.155 464.685 105.05 463.706 107.693C462.726 110.337 462.822 113.604 463.994 117.495Z"/>
<path clip-path="url(#TextBounds)" d="M108.926 396.023L84.4893 364.346L89.5677 404.064C89.934 407.084 90.1384 409.276 90.1809 410.638C90.2234 412 89.8839 413.379 89.1623 414.773C88.4408 416.167 87.1601 417.246 85.3204 418.01C83.8323 418.629 82.4929 418.86 81.302 418.704C80.1111 418.549 79.0074 418.087 77.9907 417.32C76.974 416.552 75.9869 415.551 75.0293 414.315C74.0717 413.079 73.1969 411.927 72.4048 410.86L45.8634 374.918C44.3017 372.839 43.2679 371.19 42.7622 369.973C42.1215 368.431 42.1232 366.907 42.7671 365.403C43.411 363.898 44.5311 362.814 46.1273 362.151C48.3188 361.24 50.0856 361.331 51.4275 362.424C52.7695 363.516 54.2809 365.283 55.9617 367.726L78.1843 399.228L73.4062 363.096C73.0216 360.338 72.8166 358.202 72.7912 356.69C72.7658 355.178 73.1381 353.706 73.9081 352.276C74.6781 350.846 76.0642 349.715 78.0663 348.883C80.0954 348.04 81.8765 347.88 83.4095 348.401C84.9425 348.922 86.1671 349.674 87.0833 350.658C87.9994 351.641 89.3791 353.321 91.2222 355.696L113.532 384.544L106.894 346.568C106.519 344.598 106.288 343.029 106.199 341.86C106.11 340.692 106.31 339.53 106.798 338.376C107.286 337.221 108.314 336.318 109.883 335.666C111.453 335.015 113.001 334.982 114.53 335.568C116.058 336.155 117.149 337.233 117.8 338.802C118.261 339.911 118.7 341.807 119.116 344.489L125.853 388.658C126.3 391.645 126.562 393.86 126.638 395.303C126.714 396.747 126.415 398.164 125.74 399.555C125.064 400.946 123.753 402.046 121.805 402.855C119.965 403.619 118.299 403.772 116.808 403.313C115.316 402.854 114.116 402.139 113.205 401.169C112.294 400.199 110.868 398.483 108.926 396.023Z"/>
<path clip-path="url(#TextBounds)" d="M168.933 360.056L147.262 369.058C148.334 371.563 149.763 373.571 151.548 375.081C153.334 376.592 155.247 377.495 157.289 377.789C159.33 378.083 161.338 377.819 163.314 376.999C164.639 376.448 165.785 375.79 166.752 375.023C167.718 374.257 168.578 373.329 169.331 372.239C170.083 371.149 170.735 370.046 171.286 368.928C171.838 367.811 172.533 366.317 173.374 364.445C173.74 363.722 174.45 363.141 175.505 362.703C176.642 362.231 177.691 362.16 178.653 362.49C179.615 362.82 180.332 363.553 180.804 364.69C181.219 365.691 181.313 367.024 181.085 368.689C180.857 370.354 180.207 372.131 179.135 374.019C178.064 375.908 176.5 377.755 174.442 379.562C172.385 381.368 169.801 382.917 166.69 384.21C159.574 387.165 153.198 387.435 147.562 385.017C141.926 382.6 137.664 377.914 134.776 370.961C133.416 367.687 132.641 364.448 132.452 361.243C132.263 358.039 132.686 355.047 133.721 352.27C134.756 349.492 136.418 347.001 138.707 344.798C140.995 342.594 143.804 340.801 147.132 339.418C151.46 337.62 155.553 336.991 159.41 337.53C163.266 338.07 166.567 339.466 169.311 341.721C172.056 343.975 174.052 346.604 175.3 349.607C176.457 352.394 176.409 354.531 175.156 356.019C173.902 357.508 171.828 358.853 168.933 360.056ZM144.649 362.768L164.737 354.423C162.893 350.747 160.695 348.338 158.142 347.193C155.588 346.049 152.864 346.078 149.969 347.281C147.21 348.427 145.34 350.322 144.36 352.966C143.38 355.609 143.477 358.877 144.649 362.768Z"/>
<path clip-path="url(#TextBounds)" d="M181.829 313.204L188.859 330.127C190.043 327.097 191.479 324.558 193.166 322.509C194.852 320.46 197.292 318.772 200.485 317.446C204.164 315.917 207.753 315.45 211.251 316.043C214.749 316.636 217.951 318.272 220.856 320.951C223.762 323.631 226.158 327.243 228.046 331.788C229.44 335.143 230.292 338.398 230.603 341.552C230.914 344.706 230.685 347.649 229.916 350.379C229.147 353.11 227.839 355.517 225.992 357.601C224.145 359.684 221.828 361.305 219.042 362.463C217.337 363.171 215.65 363.634 213.98 363.851C212.31 364.069 210.809 364.066 209.479 363.842C208.148 363.617 206.965 363.308 205.929 362.913C204.892 362.519 203.473 361.871 201.671 360.97L202.127 362.066C202.992 364.149 203.146 365.933 202.589 367.417C202.032 368.902 200.982 369.964 199.44 370.605C197.871 371.257 196.398 371.242 195.02 370.561C193.643 369.88 192.522 368.498 191.656 366.415L171.561 318.04C170.628 315.794 170.376 313.908 170.805 312.382C171.234 310.856 172.26 309.755 173.883 309.081C175.588 308.373 177.127 308.376 178.502 309.089C179.877 309.803 180.986 311.174 181.829 313.204ZM196.029 345.897C197.861 350.307 200.276 353.277 203.275 354.807C206.274 356.338 209.411 356.423 212.684 355.063C215.471 353.905 217.369 351.697 218.379 348.438C219.389 345.179 218.955 341.291 217.078 336.773C215.865 333.851 214.4 331.509 212.685 329.747C210.969 327.985 209.102 326.849 207.082 326.34C205.062 325.831 203.024 326.003 200.968 326.857C198.858 327.734 197.216 329.09 196.043 330.926C194.871 332.761 194.263 334.964 194.221 337.536C194.179 340.107 194.781 342.894 196.029 345.897Z"/>
<path clip-path="url(#TextBounds)" d="M284.618 313.095C286.112 316.693 286.529 320.311 285.867 323.949C285.205 327.587 283.425 330.959 280.528 334.066C277.631 337.173 273.734 339.743 268.837 341.777C262.966 344.216 257.663 345.119 252.926 344.485C249.558 344.013 246.474 342.795 243.676 340.833C240.878 338.87 238.957 336.631 237.911 334.114C237.305 332.654 237.292 331.191 237.874 329.728C238.456 328.265 239.531 327.208 241.101 326.556C242.372 326.028 243.616 325.987 244.833 326.433C246.049 326.88 247.3 327.772 248.585 329.109C250.13 330.689 251.606 331.931 253.013 332.838C254.421 333.744 256.094 334.278 258.033 334.44C259.972 334.603 262.24 334.144 264.838 333.065C268.409 331.582 270.965 329.544 272.506 326.953C274.047 324.362 274.3 321.822 273.266 319.333C272.446 317.358 271.178 316.005 269.463 315.274C267.747 314.543 265.801 314.249 263.624 314.392C261.447 314.535 258.61 314.905 255.114 315.5C250.424 316.275 246.359 316.591 242.922 316.449C239.484 316.306 236.439 315.43 233.787 313.819C231.135 312.208 229.096 309.685 227.668 306.249C226.309 302.975 225.993 299.696 226.722 296.411C227.452 293.126 229.223 290.098 232.038 287.327C234.852 284.555 238.545 282.22 243.118 280.321C246.77 278.804 250.117 277.945 253.159 277.744C256.2 277.543 258.912 277.829 261.294 278.6C263.677 279.371 265.617 280.413 267.114 281.726C268.611 283.039 269.686 284.48 270.337 286.05C270.933 287.484 270.963 288.986 270.426 290.558C269.889 292.129 268.863 293.229 267.348 293.859C265.968 294.432 264.776 294.522 263.772 294.13C262.769 293.738 261.522 292.932 260.031 291.711C258.016 289.915 255.99 288.702 253.952 288.074C251.914 287.445 249.218 287.827 245.863 289.221C242.752 290.514 240.526 292.239 239.186 294.398C237.847 296.556 237.576 298.596 238.374 300.517C238.868 301.708 239.62 302.601 240.629 303.197C241.638 303.793 242.84 304.166 244.235 304.316C245.629 304.466 246.981 304.476 248.291 304.344C249.6 304.213 251.735 303.929 254.694 303.493C258.375 302.884 261.772 302.488 264.884 302.305C267.997 302.123 270.788 302.312 273.257 302.872C275.726 303.432 277.925 304.526 279.854 306.151C281.782 307.777 283.37 310.092 284.618 313.095Z"/>
<path clip-path="url(#TextBounds)" d="M296.892 284.679L310.193 316.699C311.115 318.917 311.284 320.814 310.701 322.389C310.118 323.963 309.015 325.088 307.391 325.762C305.768 326.436 304.207 326.403 302.709 325.661C301.212 324.919 300.013 323.466 299.114 321.301L285.948 289.606C285.037 287.414 284.859 285.553 285.413 284.022C285.967 282.492 287.055 281.389 288.679 280.715C290.302 280.041 291.872 280.039 293.388 280.71C294.903 281.381 296.072 282.704 296.892 284.679ZM286.659 275.51C285.117 276.151 283.602 276.225 282.112 275.734C280.623 275.242 279.519 274.13 278.8 272.399C278.148 270.829 278.173 269.304 278.874 267.823C279.575 266.342 280.67 265.293 282.158 264.675C283.592 264.079 285.055 264.011 286.546 264.47C288.038 264.929 289.149 266.038 289.879 267.796C290.587 269.501 290.6 271.058 289.916 272.468C289.233 273.878 288.147 274.892 286.659 275.51Z"/>
<path clip-path="url(#TextBounds)" d="M306.737 274.356L307.954 273.85L305.19 267.194C304.448 265.408 303.914 263.989 303.587 262.935C303.26 261.881 303.161 260.899 303.291 259.988C303.409 259.051 303.776 258.177 304.391 257.366C305.006 256.556 305.814 255.943 306.815 255.527C308.222 254.942 309.712 254.942 311.287 255.525C312.337 255.914 313.174 256.573 313.798 257.503C314.422 258.434 315.122 259.832 315.898 261.699L319.034 269.247L323.092 267.562C324.661 266.91 326.013 266.784 327.147 267.186C328.281 267.587 329.09 268.369 329.573 269.533C330.191 271.021 330.036 272.307 329.106 273.391C328.176 274.475 326.616 275.472 324.424 276.383L322.355 277.242L330.817 297.615C331.537 299.347 332.151 300.654 332.661 301.537C333.17 302.419 333.809 303.042 334.579 303.405C335.348 303.767 336.328 303.701 337.518 303.207C338.167 302.937 338.999 302.457 340.013 301.766C341.026 301.075 341.845 300.601 342.467 300.342C343.36 299.971 344.313 299.995 345.328 300.415C346.343 300.834 347.07 301.571 347.508 302.626C348.25 304.412 347.843 306.183 346.289 307.939C344.734 309.695 342.13 311.331 338.478 312.849C335.015 314.287 332.149 314.796 329.88 314.374C327.611 313.953 325.772 312.829 324.363 311.003C322.955 309.177 321.536 306.546 320.109 303.11L311.275 281.845L309.814 282.452C308.218 283.115 306.843 283.242 305.69 282.832C304.537 282.423 303.718 281.637 303.235 280.474C302.752 279.31 302.795 278.174 303.365 277.065C303.936 275.955 305.059 275.052 306.737 274.356Z"/>
<path clip-path="url(#TextBounds)" d="M376.556 273.809L354.885 282.811C355.957 285.316 357.386 287.324 359.172 288.835C360.957 290.345 362.871 291.248 364.912 291.542C366.954 291.836 368.962 291.573 370.937 290.752C372.263 290.202 373.409 289.543 374.375 288.777C375.342 288.01 376.201 287.082 376.954 285.992C377.707 284.902 378.359 283.799 378.91 282.682C379.461 281.564 380.157 280.07 380.997 278.198C381.363 277.475 382.073 276.894 383.128 276.456C384.265 275.984 385.314 275.913 386.276 276.243C387.238 276.573 387.955 277.306 388.427 278.443C388.843 279.444 388.936 280.777 388.708 282.442C388.48 284.107 387.83 285.884 386.759 287.773C385.687 289.661 384.123 291.508 382.066 293.315C380.008 295.121 377.424 296.67 374.313 297.963C367.197 300.919 360.821 301.188 355.186 298.77C349.55 296.353 345.288 291.668 342.399 284.714C341.039 281.441 340.265 278.201 340.075 274.997C339.886 271.792 340.309 268.801 341.344 266.023C342.379 263.245 344.041 260.755 346.33 258.551C348.619 256.347 351.427 254.554 354.755 253.172C359.084 251.373 363.176 250.744 367.033 251.283C370.889 251.823 374.19 253.22 376.935 255.474C379.679 257.728 381.675 260.357 382.923 263.36C384.08 266.147 384.033 268.284 382.779 269.773C381.526 271.261 379.451 272.606 376.556 273.809ZM352.272 276.521L372.361 268.176C370.517 264.501 368.318 262.091 365.765 260.947C363.212 259.802 360.488 259.832 357.593 261.034C354.833 262.18 352.963 264.075 351.983 266.719C351.004 269.363 351.1 272.63 352.272 276.521Z"/>
</g>
<path d="M-51.499 64.7713C-51.499 4.95345 11.5906-43.5385 89.4156-43.5385C152.926-43.5385 484.926 27.1606 502.531 71.5496C506.499 81.5546 367.599 43.7988 341.925 62.7054C337.534 65.9393 316.514 108.722 315.502 113.959C310.621 139.214 121.799 40.6828 98.3415 57.0913C73.3092 74.6012 191.813 182.818 155.3 182.818C143.928 182.818 93.7771 111.365 60.5618 128.08C38.7865 139.038 30.2929 241.486 23.7916 239.447C-27.656 223.31-51.499 110.118-51.499 64.7713Z" fill="#f56464" fill-rule="nonzero" opacity="1" stroke="none"/>
<path d="M572.836 422.44C576.735 482.131 516.94 534.632 439.281 539.705C375.906 543.844 40.0029 494.936 19.5421 451.789C14.9304 442.064 155.996 470.686 180.383 450.146C184.554 446.633 202.741 402.571 203.409 397.279C206.634 371.759 401.476 457.773 423.815 439.871C447.652 420.766 322.347 320.504 358.782 318.124C370.13 317.383 424.832 385.415 456.887 366.57C477.902 354.216 479.699 251.432 486.32 253.043C538.71 265.793 569.88 377.19 572.836 422.44Z" fill="#f56464" fill-rule="nonzero" opacity="1" stroke="none"/>
</g>
</svg>
